<mxfile host="app.diagrams.net" agent="Mozilla/5.0 (Windows NT 10.0; Win64; x64) AppleWebKit/537.36 (KHTML, like Gecko) Chrome/129.0.0.0 Safari/537.36" version="24.7.17">
  <diagram name="StrÃ¡nka-1" id="-2jwoPnZxHmqPVrUrSs0">
    <mxGraphModel dx="1481" dy="784" grid="1" gridSize="10" guides="1" tooltips="1" connect="1" arrows="1" fold="1" page="1" pageScale="1" pageWidth="827" pageHeight="1169" math="0" shadow="0">
      <root>
        <mxCell id="0" />
        <mxCell id="1" parent="0" />
        <mxCell id="dpCKKXz4aF1qlXy8D-mq-1" value="Admin" style="shape=umlActor;verticalLabelPosition=bottom;verticalAlign=top;html=1;outlineConnect=0;" parent="1" vertex="1">
          <mxGeometry x="230" y="60" width="30" height="60" as="geometry" />
        </mxCell>
        <mxCell id="dpCKKXz4aF1qlXy8D-mq-2" value="Logged in&amp;nbsp;&lt;div&gt;customer&lt;/div&gt;" style="shape=umlActor;verticalLabelPosition=bottom;verticalAlign=top;html=1;outlineConnect=0;" parent="1" vertex="1">
          <mxGeometry x="230" y="380" width="30" height="60" as="geometry" />
        </mxCell>
        <mxCell id="dpCKKXz4aF1qlXy8D-mq-3" value="Customer" style="shape=umlActor;verticalLabelPosition=bottom;verticalAlign=top;html=1;outlineConnect=0;" parent="1" vertex="1">
          <mxGeometry x="230" y="670" width="30" height="60" as="geometry" />
        </mxCell>
        <mxCell id="dpCKKXz4aF1qlXy8D-mq-5" value="Browse books" style="ellipse;whiteSpace=wrap;html=1;" parent="1" vertex="1">
          <mxGeometry x="366.5" y="610" width="115" height="60" as="geometry" />
        </mxCell>
        <mxCell id="dpCKKXz4aF1qlXy8D-mq-22" style="edgeStyle=orthogonalEdgeStyle;rounded=0;orthogonalLoop=1;jettySize=auto;html=1;entryX=1;entryY=0.3333333333333333;entryDx=0;entryDy=0;entryPerimeter=0;" parent="1" source="dpCKKXz4aF1qlXy8D-mq-6" target="dpCKKXz4aF1qlXy8D-mq-3" edge="1">
          <mxGeometry relative="1" as="geometry">
            <Array as="points">
              <mxPoint x="330" y="560" />
              <mxPoint x="330" y="690" />
            </Array>
          </mxGeometry>
        </mxCell>
        <mxCell id="dpCKKXz4aF1qlXy8D-mq-6" value="Purchase books" style="ellipse;whiteSpace=wrap;html=1;strokeColor=default;align=center;verticalAlign=middle;fontFamily=Helvetica;fontSize=12;fontColor=default;fillColor=default;" parent="1" vertex="1">
          <mxGeometry x="365" y="530" width="118" height="60" as="geometry" />
        </mxCell>
        <mxCell id="dpCKKXz4aF1qlXy8D-mq-24" style="edgeStyle=orthogonalEdgeStyle;rounded=0;orthogonalLoop=1;jettySize=auto;html=1;entryX=0.5;entryY=0.5;entryDx=0;entryDy=0;entryPerimeter=0;exitX=0.004;exitY=0.535;exitDx=0;exitDy=0;exitPerimeter=0;" parent="1" source="dpCKKXz4aF1qlXy8D-mq-7" edge="1">
          <mxGeometry relative="1" as="geometry">
            <mxPoint x="381" y="700" as="sourcePoint" />
            <mxPoint x="260" y="690" as="targetPoint" />
            <Array as="points">
              <mxPoint x="345" y="712" />
              <mxPoint x="345" y="690" />
            </Array>
          </mxGeometry>
        </mxCell>
        <mxCell id="dpCKKXz4aF1qlXy8D-mq-7" value="Sort and fitler&lt;div&gt;books&lt;/div&gt;" style="ellipse;whiteSpace=wrap;html=1;" parent="1" vertex="1">
          <mxGeometry x="366" y="680" width="115" height="60" as="geometry" />
        </mxCell>
        <mxCell id="ExAoTmcCdbNUSCYIkKqm-4" style="edgeStyle=orthogonalEdgeStyle;rounded=0;orthogonalLoop=1;jettySize=auto;html=1;fontFamily=Helvetica;fontSize=12;fontColor=default;" edge="1" parent="1" source="dpCKKXz4aF1qlXy8D-mq-9" target="dpCKKXz4aF1qlXy8D-mq-3">
          <mxGeometry relative="1" as="geometry">
            <Array as="points">
              <mxPoint x="330" y="800" />
              <mxPoint x="330" y="690" />
            </Array>
          </mxGeometry>
        </mxCell>
        <mxCell id="dpCKKXz4aF1qlXy8D-mq-9" value="Create account" style="ellipse;whiteSpace=wrap;html=1;" parent="1" vertex="1">
          <mxGeometry x="366.5" y="770" width="118" height="60" as="geometry" />
        </mxCell>
        <mxCell id="dpCKKXz4aF1qlXy8D-mq-10" value="Review purchase history" style="ellipse;whiteSpace=wrap;html=1;strokeColor=default;align=center;verticalAlign=middle;fontFamily=Helvetica;fontSize=12;fontColor=default;fillColor=default;" parent="1" vertex="1">
          <mxGeometry x="364" y="460" width="120" height="60" as="geometry" />
        </mxCell>
        <mxCell id="dpCKKXz4aF1qlXy8D-mq-20" style="edgeStyle=orthogonalEdgeStyle;rounded=0;orthogonalLoop=1;jettySize=auto;html=1;" parent="1" source="dpCKKXz4aF1qlXy8D-mq-11" edge="1">
          <mxGeometry relative="1" as="geometry">
            <mxPoint x="260" y="400" as="targetPoint" />
            <Array as="points">
              <mxPoint x="310" y="420" />
              <mxPoint x="310" y="400" />
            </Array>
          </mxGeometry>
        </mxCell>
        <mxCell id="dpCKKXz4aF1qlXy8D-mq-11" value="Rate books" style="ellipse;whiteSpace=wrap;html=1;" parent="1" vertex="1">
          <mxGeometry x="364" y="390" width="120" height="60" as="geometry" />
        </mxCell>
        <mxCell id="dpCKKXz4aF1qlXy8D-mq-19" style="edgeStyle=orthogonalEdgeStyle;rounded=0;orthogonalLoop=1;jettySize=auto;html=1;" parent="1" source="dpCKKXz4aF1qlXy8D-mq-12" edge="1">
          <mxGeometry relative="1" as="geometry">
            <mxPoint x="260" y="400" as="targetPoint" />
            <Array as="points">
              <mxPoint x="310" y="350" />
              <mxPoint x="310" y="400" />
            </Array>
          </mxGeometry>
        </mxCell>
        <mxCell id="dpCKKXz4aF1qlXy8D-mq-12" value="Make wishlists" style="ellipse;whiteSpace=wrap;html=1;" parent="1" vertex="1">
          <mxGeometry x="364" y="320" width="120" height="60" as="geometry" />
        </mxCell>
        <mxCell id="dpCKKXz4aF1qlXy8D-mq-18" style="edgeStyle=orthogonalEdgeStyle;rounded=0;orthogonalLoop=1;jettySize=auto;html=1;" parent="1" source="dpCKKXz4aF1qlXy8D-mq-13" target="dpCKKXz4aF1qlXy8D-mq-1" edge="1">
          <mxGeometry relative="1" as="geometry">
            <Array as="points">
              <mxPoint x="300" y="50" />
              <mxPoint x="300" y="90" />
            </Array>
          </mxGeometry>
        </mxCell>
        <mxCell id="dpCKKXz4aF1qlXy8D-mq-13" value="Update book details" style="ellipse;whiteSpace=wrap;html=1;" parent="1" vertex="1">
          <mxGeometry x="354" y="20" width="120" height="60" as="geometry" />
        </mxCell>
        <mxCell id="dpCKKXz4aF1qlXy8D-mq-17" style="edgeStyle=orthogonalEdgeStyle;rounded=0;orthogonalLoop=1;jettySize=auto;html=1;exitX=0;exitY=0.5;exitDx=0;exitDy=0;" parent="1" source="dpCKKXz4aF1qlXy8D-mq-15" edge="1" target="dpCKKXz4aF1qlXy8D-mq-1">
          <mxGeometry relative="1" as="geometry">
            <mxPoint x="260" y="270" as="targetPoint" />
            <mxPoint x="359.9999999999998" y="280" as="sourcePoint" />
            <Array as="points">
              <mxPoint x="300" y="230" />
              <mxPoint x="300" y="90" />
            </Array>
          </mxGeometry>
        </mxCell>
        <mxCell id="dpCKKXz4aF1qlXy8D-mq-14" value="Manage user accounts" style="ellipse;whiteSpace=wrap;html=1;" parent="1" vertex="1">
          <mxGeometry x="354" y="110" width="121" height="60" as="geometry" />
        </mxCell>
        <mxCell id="dpCKKXz4aF1qlXy8D-mq-15" value="Regulate book prices" style="ellipse;whiteSpace=wrap;html=1;" parent="1" vertex="1">
          <mxGeometry x="361" y="200" width="120" height="60" as="geometry" />
        </mxCell>
        <mxCell id="dpCKKXz4aF1qlXy8D-mq-23" style="edgeStyle=orthogonalEdgeStyle;rounded=0;orthogonalLoop=1;jettySize=auto;html=1;exitX=0;exitY=0.5;exitDx=0;exitDy=0;" parent="1" source="dpCKKXz4aF1qlXy8D-mq-5" edge="1">
          <mxGeometry relative="1" as="geometry">
            <Array as="points">
              <mxPoint x="330" y="640" />
              <mxPoint x="330" y="690" />
            </Array>
            <mxPoint x="360" y="640" as="sourcePoint" />
            <mxPoint x="260" y="690" as="targetPoint" />
          </mxGeometry>
        </mxCell>
        <mxCell id="dpCKKXz4aF1qlXy8D-mq-26" value="" style="endArrow=classic;html=1;rounded=0;" parent="1" target="dpCKKXz4aF1qlXy8D-mq-2" edge="1">
          <mxGeometry width="50" height="50" relative="1" as="geometry">
            <mxPoint x="245" y="150" as="sourcePoint" />
            <mxPoint x="450" y="430" as="targetPoint" />
            <Array as="points">
              <mxPoint x="245" y="370" />
            </Array>
          </mxGeometry>
        </mxCell>
        <mxCell id="dpCKKXz4aF1qlXy8D-mq-27" value="" style="endArrow=classic;html=1;rounded=0;entryX=0.5;entryY=0;entryDx=0;entryDy=0;entryPerimeter=0;" parent="1" target="dpCKKXz4aF1qlXy8D-mq-3" edge="1">
          <mxGeometry width="50" height="50" relative="1" as="geometry">
            <mxPoint x="245" y="480" as="sourcePoint" />
            <mxPoint x="255" y="390" as="targetPoint" />
          </mxGeometry>
        </mxCell>
        <mxCell id="ExAoTmcCdbNUSCYIkKqm-5" style="edgeStyle=orthogonalEdgeStyle;rounded=0;orthogonalLoop=1;jettySize=auto;html=1;entryX=0.5;entryY=0.5;entryDx=0;entryDy=0;entryPerimeter=0;fontFamily=Helvetica;fontSize=12;fontColor=default;" edge="1" parent="1">
          <mxGeometry relative="1" as="geometry">
            <mxPoint x="369.0000000000001" y="140" as="sourcePoint" />
            <mxPoint x="260" y="90" as="targetPoint" />
            <Array as="points">
              <mxPoint x="300" y="140" />
              <mxPoint x="300" y="90" />
            </Array>
          </mxGeometry>
        </mxCell>
        <mxCell id="ExAoTmcCdbNUSCYIkKqm-8" style="edgeStyle=orthogonalEdgeStyle;rounded=0;orthogonalLoop=1;jettySize=auto;html=1;entryX=1;entryY=0.3333333333333333;entryDx=0;entryDy=0;entryPerimeter=0;fontFamily=Helvetica;fontSize=12;fontColor=default;" edge="1" parent="1" source="dpCKKXz4aF1qlXy8D-mq-10" target="dpCKKXz4aF1qlXy8D-mq-2">
          <mxGeometry relative="1" as="geometry">
            <Array as="points">
              <mxPoint x="310" y="490" />
              <mxPoint x="310" y="400" />
            </Array>
          </mxGeometry>
        </mxCell>
      </root>
    </mxGraphModel>
  </diagram>
</mxfile>
